<?xml version="1.0" encoding="UTF-8" standalone="no"?>
<!-- Created with Inkscape (http://www.inkscape.org/) -->

<svg
   width="263.93478mm"
   height="32.521889mm"
   viewBox="0 0 263.93478 32.521889"
   version="1.1"
   id="svg1"
   inkscape:version="1.4 (86a8ad7, 2024-10-11)"
   sodipodi:docname="potet.svg"
   inkscape:export-filename="potato.png"
   inkscape:export-xdpi="96"
   inkscape:export-ydpi="96"
   xmlns:inkscape="http://www.inkscape.org/namespaces/inkscape"
   xmlns:sodipodi="http://sodipodi.sourceforge.net/DTD/sodipodi-0.dtd"
   xmlns="http://www.w3.org/2000/svg"
   xmlns:svg="http://www.w3.org/2000/svg">
  <sodipodi:namedview
     id="namedview1"
     pagecolor="#ffffff"
     bordercolor="#000000"
     borderopacity="0.25"
     inkscape:showpageshadow="2"
     inkscape:pageopacity="0.0"
     inkscape:pagecheckerboard="0"
     inkscape:deskcolor="#d1d1d1"
     inkscape:document-units="mm"
     inkscape:zoom="0.76167929"
     inkscape:cx="410.27766"
     inkscape:cy="116.19063"
     inkscape:window-width="1920"
     inkscape:window-height="1057"
     inkscape:window-x="-8"
     inkscape:window-y="-8"
     inkscape:window-maximized="1"
     inkscape:current-layer="layer1" />
  <defs
     id="defs1" />
  <g
     inkscape:label="Layer 1"
     inkscape:groupmode="layer"
     id="layer1"
     transform="translate(-16.532601,-92.080111)">
    <path
       style="font-weight:bold;font-size:34.9999px;font-family:Helvetica;-inkscape-font-specification:'Helvetica Bold';letter-spacing:0px;fill:#ffffff;fill-opacity:1;stroke-width:0.3"
       d="m 21.471552,111.32322 q 0.153808,1.29883 0.666502,1.8457 0.905759,0.97412 3.3496,0.97412 1.435543,0 2.272943,-0.42725 0.854489,-0.42724 0.854489,-1.28173 0,-0.82031 -0.683591,-1.24756 -0.683592,-0.42724 -5.07567,-1.46972 -3.161612,-0.78613 -4.460436,-1.96533 -1.298825,-1.1621 -1.298825,-3.3496 0,-2.58056 2.016596,-4.426253 2.033686,-1.862788 5.707992,-1.862788 3.486318,0 5.673812,1.401363 2.204583,1.384278 2.52929,4.802228 h -4.870592 q -0.102539,-0.93993 -0.529784,-1.48681 -0.80322,-0.99121 -2.734367,-0.99121 -1.589351,0 -2.272943,0.49561 -0.666502,0.4956 -0.666502,1.1621 0,0.8374 0.717772,1.21338 0.717771,0.39307 5.075669,1.35009 2.905265,0.6836 4.357898,2.06787 1.435542,1.40136 1.435542,3.50341 0,2.76854 -2.067865,4.52879 -2.050775,1.74316 -6.357404,1.74316 -4.392077,0 -6.494122,-1.8457 -2.084955,-1.86278 -2.084955,-4.73387 z m 3.725575,-13.176231 z m 20.729922,0.495604 H 50.866 l 2.836906,13.415487 2.905265,-13.415487 h 5.075669 l -5.400375,18.627877 h -5.00731 l -2.922355,-13.5693 -2.956535,13.5693 H 40.338686 L 35.109208,98.642593 h 5.229478 l 2.905265,13.364217 z m 25.788504,3.520497 q -1.69189,0 -2.631829,1.05957 -0.922849,1.05957 -1.162106,2.87108 h 7.570779 q -0.119628,-1.93114 -1.179195,-2.92235 -1.042478,-1.0083 -2.597649,-1.0083 z m 0,-4.016101 q 2.324212,0 4.187,0.871579 1.862787,0.87158 3.076163,2.751462 1.093747,1.65771 1.418453,3.8452 0.187987,1.28173 0.153808,3.6914 H 67.80199 q 0.102538,2.80272 1.760249,3.93065 1.008297,0.70068 2.42675,0.70068 1.503902,0 2.443841,-0.85449 0.512694,-0.46142 0.905759,-1.28173 h 4.973131 q -0.187988,1.65771 -1.72607,3.36668 -2.392571,2.71728 -6.699199,2.71728 -3.554678,0 -6.271955,-2.29003 -2.717278,-2.29003 -2.717278,-7.45115 0,-4.83641 2.443841,-7.41697 2.460931,-2.580561 6.374494,-2.580561 z m 0.341796,0 z m 19.123482,4.016101 q -1.691889,0 -2.631828,1.05957 -0.922849,1.05957 -1.162106,2.87108 h 7.570779 q -0.119628,-1.93114 -1.179196,-2.92235 -1.042477,-1.0083 -2.597649,-1.0083 z m 0,-4.016101 q 2.324213,0 4.187,0.871579 1.862788,0.87158 3.076163,2.751462 1.093747,1.65771 1.418453,3.8452 0.187993,1.28173 0.153813,3.6914 H 87.267268 q 0.102539,2.80272 1.760249,3.93065 1.008298,0.70068 2.426751,0.70068 1.503902,0 2.443841,-0.85449 0.512694,-0.46142 0.905759,-1.28173 h 4.97313 q -0.187987,1.65771 -1.726069,3.36668 -2.392571,2.71728 -6.6992,2.71728 -3.554677,0 -6.271955,-2.29003 -2.717277,-2.29003 -2.717277,-7.45115 0,-4.83641 2.443841,-7.41697 2.46093,-2.580561 6.374493,-2.580561 z m 0.341796,0 z m 9.860803,4.135731 v -3.469229 h 2.59765 v -5.195298 h 4.81932 v 5.195298 h 3.0249 v 3.469229 h -3.0249 v 9.84372 q 0,1.14502 0.29053,1.43554 0.29053,0.27344 1.77734,0.27344 0.22217,0 0.46142,0 0.25635,-0.0171 0.49561,-0.0342 v 3.64013 l -2.30712,0.0854 q -3.45214,0.11963 -4.71679,-1.19629 -0.82031,-0.8374 -0.82031,-2.58056 v -11.46725 z m 28.1469,-2.18749 q 0,-1.965331 -1.04248,-2.802731 -1.02539,-0.8374 -2.88817,-0.8374 h -4.90478 v 7.416971 h 4.90478 q 1.86278,0 2.88817,-0.90576 1.04248,-0.90576 1.04248,-2.87108 z m 5.21239,-0.0342 q 0,4.46043 -2.25586,6.30613 -2.25585,1.8457 -6.44285,1.8457 h -5.34911 v 9.05759 h -5.22947 V 92.080111 h 10.97165 q 3.79393,0 6.04978,1.948237 2.25586,1.948237 2.25586,6.032702 z m 11.91158,13.77437 q 2.13623,0 3.28124,-1.52099 1.14502,-1.52099 1.14502,-4.32372 0,-2.80273 -1.14502,-4.30663 -1.14501,-1.52099 -3.28124,-1.52099 -2.13622,0 -3.29833,1.52099 -1.14502,1.5039 -1.14502,4.30663 0,2.80273 1.14502,4.32372 1.16211,1.52099 3.29833,1.52099 z m 9.53611,-5.84471 q 0,4.10155 -2.35839,7.02391 -2.3584,2.90526 -7.16063,2.90526 -4.80223,0 -7.16062,-2.90526 -2.3584,-2.92236 -2.3584,-7.02391 0,-4.03319 2.3584,-6.98973 2.35839,-2.95653 7.16062,-2.95653 4.80223,0 7.16063,2.95653 2.35839,2.95654 2.35839,6.98973 z m -9.51902,-9.843721 z m 11.09129,4.135731 v -3.469229 h 2.59764 v -5.195298 h 4.81933 v 5.195298 h 3.02489 v 3.469229 h -3.02489 v 9.84372 q 0,1.14502 0.29052,1.43554 0.29053,0.27344 1.77734,0.27344 0.22217,0 0.46143,0 0.25634,-0.0171 0.4956,-0.0342 v 3.64013 l -2.30712,0.0854 q -3.45214,0.11963 -4.71679,-1.19629 -0.82031,-0.8374 -0.82031,-2.58056 v -11.46725 z m 20.91789,-0.11963 q -1.69189,0 -2.63183,1.05957 -0.92285,1.05957 -1.1621,2.87108 h 7.57078 q -0.11963,-1.93114 -1.1792,-2.92235 -1.04248,-1.0083 -2.59765,-1.0083 z m 0,-4.016101 q 2.32421,0 4.187,0.871579 1.86279,0.87158 3.07616,2.751462 1.09375,1.65771 1.41846,3.8452 0.18799,1.28173 0.15381,3.6914 h -12.74899 q 0.10254,2.80272 1.76025,3.93065 1.0083,0.70068 2.42675,0.70068 1.5039,0 2.44384,-0.85449 0.51269,-0.46142 0.90576,-1.28173 h 4.97313 q -0.18799,1.65771 -1.72607,3.36668 -2.39257,2.71728 -6.6992,2.71728 -3.55468,0 -6.27195,-2.29003 -2.71728,-2.29003 -2.71728,-7.45115 0,-4.83641 2.44384,-7.41697 2.46093,-2.580561 6.37449,-2.580561 z m 0.3418,0 z m 9.86082,4.135731 v -3.469229 h 2.59765 v -5.195298 h 4.81932 v 5.195298 h 3.02489 v 3.469229 h -3.02489 v 9.84372 q 0,1.14502 0.29053,1.43554 0.29052,0.27344 1.77734,0.27344 0.22216,0 0.46142,0 0.25635,-0.0171 0.4956,-0.0342 v 3.64013 l -2.30712,0.0854 q -3.45214,0.11963 -4.71678,-1.19629 -0.82031,-0.8374 -0.82031,-2.58056 v -11.46725 z m 13.48385,9.89499 h 5.17821 v 5.09276 h -5.17821 z m 30.62491,-13.945272 q 1.23047,0 2.42675,0.478514 1.19629,0.478514 2.17041,1.674798 0.78613,0.97412 1.05956,2.39257 0.1709,0.93994 0.1709,2.75146 l -0.0342,11.74069 h -4.99022 v -11.86032 q 0,-1.05957 -0.3418,-1.74316 -0.64941,-1.29882 -2.39257,-1.29882 -2.01659,0 -2.78563,1.6748 -0.39307,0.88867 -0.39307,2.13622 v 11.09128 h -4.90477 v -11.09128 q 0,-1.65771 -0.3418,-2.40966 -0.61523,-1.35009 -2.40966,-1.35009 -2.08495,0 -2.80272,1.35009 -0.39307,0.76904 -0.39307,2.29003 v 11.21091 h -4.93895 V 98.676772 h 4.73387 v 2.717278 q 0.90576,-1.452633 1.70898,-2.067865 1.41846,-1.093747 3.67431,-1.093747 2.13622,0 3.45214,0.939938 1.05957,0.871584 1.60644,2.238764 0.95703,-1.640621 2.37548,-2.409662 1.5039,-0.76904 3.3496,-0.76904 z m 23.13958,9.724092 q 0,-2.15331 -0.99121,-3.81102 -0.97412,-1.65771 -3.1787,-1.65771 -2.64892,0 -3.64013,2.5122 -0.51269,1.333 -0.51269,3.38378 0,3.24706 1.72607,4.56297 1.02539,0.76904 2.42675,0.76904 2.03369,0 3.09325,-1.57226 1.07666,-1.57226 1.07666,-4.187 z m -2.76855,-9.724092 q 3.26415,0 5.52001,2.409662 2.27294,2.40966 2.27294,7.07517 0,4.92187 -2.22167,7.50242 -2.20459,2.58056 -5.69091,2.58056 -2.22167,0 -3.69139,-1.11083 -0.80322,-0.61524 -1.57226,-1.79443 v 9.707 h -4.81932 V 98.642593 h 4.66551 v 2.751457 q 0.78613,-1.21338 1.6748,-1.914057 1.62353,-1.247555 3.86229,-1.247555 z m 14.7485,11.433072 q 0,1.48681 0.47851,2.46093 0.88867,1.79443 3.22997,1.79443 1.43554,0 2.49511,-0.97412 1.07666,-0.99121 1.07666,-2.8369 0,-2.44385 -1.98242,-3.26416 -1.12792,-0.46142 -3.55467,-0.46142 v -3.48632 q 2.37548,-0.0342 3.31542,-0.46142 1.62353,-0.71777 1.62353,-2.905268 0,-1.418453 -0.8374,-2.307122 -0.82031,-0.88867 -2.32422,-0.88867 -1.72607,0 -2.54638,1.093747 -0.80322,1.093747 -0.76904,2.922353 h -4.54588 q 0.0684,-1.845696 0.63232,-3.503406 0.59814,-1.452632 1.87988,-2.683098 0.95703,-0.871579 2.27294,-1.333004 1.31591,-0.461424 3.22997,-0.461424 3.55468,0 5.72508,1.845698 2.1875,1.828608 2.1875,4.921861 0,2.187493 -1.29883,3.691393 -0.82031,0.93994 -1.70898,1.28174 0.66651,0 1.91406,1.14501 1.86279,1.72607 1.86279,4.71679 0,3.14452 -2.1875,5.53709 -2.1704,2.37548 -6.44285,2.37548 -5.26366,0 -7.31443,-3.43505 -1.07666,-1.8286 -1.19629,-4.78514 z"
       id="text1"
       aria-label="sweetPotet.mp3" />
    <path
       style="font-weight:bold;font-size:8px;font-family:'Helvetica Light';-inkscape-font-specification:'Helvetica Light,  Bold';letter-spacing:-0.529167px;fill:#ffffff;fill-opacity:1;stroke-width:0.3"
       d="m 203.86105,124.48871 v -4.14453 h -0.48047 v 4.14453 z m 0.0234,-5.04688 v -0.71093 h -0.52734 v 0.71093 z m 2.12708,4.67188 q -0.1914,0.0547 -0.39062,0.0547 -0.28906,0 -0.35156,-0.14454 -0.0742,-0.14453 -0.0664,-0.4375 v -2.83984 h 0.77734 v -0.40234 h -0.77734 v -1.15235 h -0.48047 v 1.15235 h -0.58203 v 0.40234 h 0.58203 v 3.03125 q 0,0.44531 0.20313,0.64063 0.18359,0.18359 0.53515,0.18359 0.1836,-0.008 0.32813,-0.0508 0.13672,-0.0312 0.22265,-0.0469 z m 0.34193,-3.57813 h 0.41797 v -1.80468 h -0.41797 z m 0.93568,2.65625 q 0.0391,0.60157 0.4414,0.99219 0.39844,0.41016 1.13672,0.41797 0.74219,0 1.21485,-0.3125 0.46484,-0.30469 0.47265,-0.89844 0,-0.30078 -0.10547,-0.5039 -0.11328,-0.20704 -0.30468,-0.33594 -0.1836,-0.13281 -0.42188,-0.21485 -0.24219,-0.0781 -0.49609,-0.13671 -0.51172,-0.10157 -0.90625,-0.26954 -0.19141,-0.0898 -0.30078,-0.21875 -0.1211,-0.13281 -0.1211,-0.33593 0.008,-0.6875 0.9336,-0.71094 0.45703,0 0.76171,0.19141 0.29688,0.19921 0.35938,0.67968 h 0.48828 q -0.21484,-1.32812 -1.60156,-1.30078 -0.6875,0.008 -1.0625,0.32813 -0.39063,0.32422 -0.39063,0.85547 0,0.29296 0.11719,0.49609 0.11328,0.19922 0.30469,0.32812 0.1914,0.11719 0.43359,0.19141 0.1211,0.0391 0.23828,0.0625 0.11328,0.0312 0.23438,0.0742 0.2539,0.0469 0.49609,0.0937 0.11719,0.0234 0.23047,0.0625 0.11328,0.0352 0.19141,0.082 0.1914,0.0781 0.30468,0.22266 0.10547,0.14453 0.10547,0.36718 0,0.3125 -0.25,0.53125 -0.24609,0.23047 -0.77343,0.23829 -1.05079,0.0234 -1.24219,-0.97657 z m 5.92604,1.29688 v -5.75781 h -0.48047 v 5.75781 z m 1.24818,0 v -4.14453 h -0.48047 v 4.14453 z m 0.0234,-5.04688 v -0.71093 h -0.52734 v 0.71093 z m 0.46302,3.75 q 0.0391,0.60157 0.44141,0.99219 0.39844,0.41016 1.13672,0.41797 0.74219,0 1.21484,-0.3125 0.46485,-0.30469 0.47266,-0.89844 0,-0.30078 -0.10547,-0.5039 -0.11328,-0.20704 -0.30469,-0.33594 -0.18359,-0.13281 -0.42187,-0.21485 -0.24219,-0.0781 -0.4961,-0.13671 -0.51172,-0.10157 -0.90625,-0.26954 -0.1914,-0.0898 -0.30078,-0.21875 -0.12109,-0.13281 -0.12109,-0.33593 0.008,-0.6875 0.93359,-0.71094 0.45703,0 0.76172,0.19141 0.29688,0.19921 0.35938,0.67968 h 0.48828 q -0.21485,-1.32812 -1.60157,-1.30078 -0.6875,0.008 -1.0625,0.32813 -0.39062,0.32422 -0.39062,0.85547 0,0.29296 0.11719,0.49609 0.11328,0.19922 0.30468,0.32812 0.19141,0.11719 0.4336,0.19141 0.12109,0.0391 0.23828,0.0625 0.11328,0.0312 0.23437,0.0742 0.25391,0.0469 0.4961,0.0937 0.11719,0.0234 0.23047,0.0625 0.11328,0.0352 0.1914,0.082 0.19141,0.0781 0.30469,0.22266 0.10547,0.14453 0.10547,0.36718 0,0.3125 -0.25,0.53125 -0.24609,0.23047 -0.77344,0.23829 -1.05078,0.0234 -1.24219,-0.97657 z m 5.1349,0.92188 q -0.19141,0.0547 -0.39063,0.0547 -0.28906,0 -0.35156,-0.14454 -0.0742,-0.14453 -0.0664,-0.4375 v -2.83984 h 0.77734 v -0.40234 h -0.77734 v -1.15235 h -0.48047 v 1.15235 h -0.58203 v 0.40234 h 0.58203 v 3.03125 q 0,0.44531 0.20312,0.64063 0.1836,0.18359 0.53516,0.18359 0.18359,-0.008 0.32812,-0.0508 0.13672,-0.0312 0.22266,-0.0469 z m 0.53333,-1.98438 q 0.0742,-0.60937 0.41797,-1.03125 0.34375,-0.42578 0.97656,-0.43359 0.64453,0.008 0.98047,0.42578 0.32813,0.40625 0.32813,1.03906 z m 3.21485,0.39844 q -0.0547,-2.27734 -1.82032,-2.29297 -0.89843,0.0156 -1.39453,0.63672 -0.51172,0.625 -0.51172,1.5625 -0.008,0.93359 0.45703,1.53516 0.46485,0.61718 1.44922,0.63281 0.78125,-0.008 1.20703,-0.40234 0.41407,-0.38282 0.58204,-0.98438 h -0.53516 q -0.26563,0.94531 -1.25391,0.95313 -0.6914,-0.008 -1.04297,-0.48829 -0.35156,-0.46484 -0.35156,-1.15234 z m 0.8888,-0.26953 q -0.008,-0.41016 0.10547,-0.78516 0.1289,-0.33593 0.41406,-0.5664 0.28906,-0.23438 0.73828,-0.24219 1.08594,0 1.07031,1.12109 v 2.70313 h 0.48047 v -2.71094 q 0,-0.26562 -0.0234,-0.50391 -0.0312,-0.23437 -0.18359,-0.44921 -0.47266,-0.60938 -1.26563,-0.58985 -0.42187,0 -0.73437,0.1836 -0.32031,0.18359 -0.60156,0.5039 v 0 -0.57812 h -0.48047 v 4.14453 h 0.48047 z m 6.15442,0.0547 v 0.64843 q -0.0156,0.625 -0.46484,0.91016 -0.44922,0.29688 -1.04687,0.29688 -0.35157,0 -0.61719,-0.19141 -0.27344,-0.18359 -0.28125,-0.55078 0.0156,-0.81641 1.16797,-0.88281 0.3125,-0.0156 0.625,-0.0703 0.3125,-0.0469 0.61718,-0.16015 z m -1.47265,-0.15235 q -1.44922,0.19922 -1.44922,1.25 0.008,0.59766 0.42578,0.88672 0.39844,0.30469 0.95703,0.30469 0.92188,-0.008 1.54688,-0.6875 v 0 q 0.008,0.21484 0.0781,0.39062 0.0742,0.17579 0.30469,0.22266 0.10547,0.0234 0.21484,0.0234 0.11328,0 0.22657,-0.0391 0.10156,-0.0234 0.15234,-0.0391 v -0.375 0 q -0.29688,0.10157 -0.40234,0.0234 -0.11329,-0.0742 -0.10157,-0.34375 v -2.25781 q -0.0117,-0.71094 -0.43359,-1.00781 -0.42578,-0.27735 -1.07031,-0.27735 -0.69141,0 -1.16016,0.3086 -0.47266,0.32812 -0.54687,1.05859 h 0.48828 q 0.082,-0.53516 0.39453,-0.74609 0.32031,-0.19922 0.8125,-0.19141 0.5625,0.008 0.80078,0.23437 0.23437,0.23047 0.23437,0.60547 0,0.11328 -0.0234,0.24219 -0.0352,0.125 -0.15235,0.19141 -0.1289,0.0469 -0.30468,0.0859 -0.1836,0.0312 -0.32813,0.0508 z m 3.21692,0.24219 q 0,-0.73047 0.375,-1.22656 0.36719,-0.4961 1.02344,-0.51172 0.74219,0.008 1.10547,0.54297 0.35156,0.53906 0.30859,1.33594 -0.0156,0.78515 -0.39843,1.19531 -0.39063,0.42969 -1.01563,0.42969 -0.67969,-0.008 -1.03125,-0.51172 -0.36719,-0.4961 -0.36719,-1.25391 z m 0,1.35938 h 0.0156 q 0.23047,0.40625 0.63281,0.61328 0.39844,0.21875 0.80469,0.22656 1,-0.0156 1.44922,-0.63281 0.42578,-0.60938 0.42578,-1.54297 0,-0.90625 -0.44922,-1.53906 -0.45703,-0.63672 -1.39844,-0.65235 -0.4414,0 -0.84375,0.19141 -0.39843,0.19922 -0.63672,0.58203 v 0 -2.27734 h -0.48046 v 5.75781 h 0.48046 z m 4.37318,0.72656 v -5.75781 h -0.48047 v 5.75781 z m 0.99037,-2.35938 q 0.0742,-0.60937 0.41797,-1.03125 0.34375,-0.42578 0.97656,-0.43359 0.64453,0.008 0.98047,0.42578 0.32812,0.40625 0.32812,1.03906 z m 3.21484,0.39844 q -0.0547,-2.27734 -1.82031,-2.29297 -0.89844,0.0156 -1.39453,0.63672 -0.51172,0.625 -0.51172,1.5625 -0.008,0.93359 0.45703,1.53516 0.46484,0.61718 1.44922,0.63281 0.78125,-0.008 1.20703,-0.40234 0.41406,-0.38282 0.58203,-0.98438 h -0.53516 q -0.26562,0.94531 -1.2539,0.95313 -0.69141,-0.008 -1.04297,-0.48829 -0.35156,-0.46484 -0.35156,-1.15234 z"
       id="text2"
       aria-label="it's listenable" />
  </g>
</svg>
